<?xml version="1.0" standalone="no"?><!DOCTYPE svg PUBLIC "-//W3C//DTD SVG 1.1//EN" "http://www.w3.org/Graphics/SVG/1.1/DTD/svg11.dtd"><svg t="1561912906338" class="icon" viewBox="0 0 1212 1024" version="1.1" xmlns="http://www.w3.org/2000/svg" p-id="803" xmlns:xlink="http://www.w3.org/1999/xlink" width="606" height="512"><defs><style type="text/css"></style></defs><path d="M896.426993 3.015552a372.195543 372.195543 0 0 0-290.244231 90.914737A362.805289 362.805289 0 0 0 315.938531 3.015552a364.085778 364.085778 0 0 0-210.000237 617.62265c24.329296 24.329296 272.317381 244.146618 417.866326 373.049203a122.500139 122.500139 0 0 0 161.341646 0c145.122115-128.048925 393.537031-348.719907 421.707794-373.049203A364.085778 364.085778 0 0 0 896.426993 3.015552z m64.451292 516.890829a42.682975 42.682975 0 0 1-28.170763-12.378063 38.841507 38.841507 0 0 1 0-56.341527 119.93916 119.93916 0 0 0-85.365951-205.73194 40.548826 40.548826 0 1 1 0-80.670823 201.890472 201.890472 0 0 1 202.744132 201.463642 199.756324 199.756324 0 0 1-58.475676 143.414797 59.756165 59.756165 0 0 1-30.304912 10.243914z" fill="#FF8810" p-id="804"></path></svg>