<svg height="512pt" viewBox="0 -9 512.001 512" width="512pt" xmlns="http://www.w3.org/2000/svg"><path d="m241.054688 46.976562c-1.300782 0-2.617188-.328124-3.824219-1.023437-3.707031-2.113281-4.992188-6.835937-2.875-10.539063 12.355469-21.621093 37.332031-41.785156 70.386719-33.519531 4.136718 1.035157 6.65625 5.230469 5.621093 9.371094-1.035156 4.140625-5.230469 6.65625-9.371093 5.621094-7.855469-1.964844-34.898438-5.875-53.222657 26.191406-1.425781 2.496094-4.03125 3.898437-6.714843 3.898437zm0 0" fill="#eab765"/><path d="m476.386719 202.910156c0-19.105468-15.484375-34.589844-34.589844-34.589844h-371.59375c-19.105469 0-34.589844 15.488282-34.589844 34.589844 0 19.070313 15.433594 34.535156 34.492188 34.589844-19.058594.050781-34.492188 15.515625-34.492188 34.585938 0 19.105468 15.484375 34.589843 34.589844 34.589843-19.105469 0-34.589844 15.488281-34.589844 34.589844 0 19.105469 15.484375 34.589844 34.589844 34.589844-19.105469 0-34.589844 15.488281-34.589844 34.589843 0 19.105469 15.484375 34.589844 34.589844 34.589844h371.59375c19.105469 0 34.589844-15.484375 34.589844-34.589844 0-19.101562-15.484375-34.589843-34.589844-34.589843 19.105469 0 34.589844-15.488281 34.589844-34.589844s-15.484375-34.589844-34.589844-34.589844c19.105469 0 34.589844-15.484375 34.589844-34.589843 0-19.070313-15.433594-34.535157-34.492188-34.585938 19.058594-.054688 34.492188-15.519531 34.492188-34.589844zm0 0" fill="#fde6bf"/><g fill="#fdd79b"><path d="m476.386719 202.910156c0-19.105468-15.484375-34.589844-34.589844-34.589844h-32.691406c19.101562 0 34.589843 15.488282 34.589843 34.589844 0 19.070313-15.4375 34.535156-34.496093 34.589844 19.058593.050781 34.496093 15.515625 34.496093 34.585938 0 19.105468-15.488281 34.589843-34.589843 34.589843 19.101562 0 34.589843 15.488281 34.589843 34.589844 0 19.105469-15.488281 34.589844-34.589843 34.589844 19.101562 0 34.589843 15.488281 34.589843 34.589843 0 19.105469-15.488281 34.589844-34.589843 34.589844h32.691406c19.105469 0 34.589844-15.484375 34.589844-34.589844 0-19.101562-15.484375-34.589843-34.589844-34.589843 19.105469 0 34.589844-15.488281 34.589844-34.589844s-15.484375-34.589844-34.589844-34.589844c19.105469 0 34.589844-15.484375 34.589844-34.589843 0-19.070313-15.433594-34.535157-34.492188-34.585938 19.058594-.054688 34.492188-15.519531 34.492188-34.589844zm0 0"/><path d="m441.796875 237.5h-371.59375c-19.105469 0-34.589844-15.484375-34.589844-34.589844 0-19.105468 15.484375-34.589844 34.589844-34.589844h371.59375c19.105469 0 34.589844 15.484376 34.589844 34.589844 0 19.105469-15.484375 34.589844-34.589844 34.589844zm0 0"/><path d="m441.796875 375.855469h-371.59375c-19.105469 0-34.589844-15.484375-34.589844-34.589844s15.484375-34.589844 34.589844-34.589844h371.59375c19.105469 0 34.589844 15.484375 34.589844 34.589844 0 19.101563-15.484375 34.589844-34.589844 34.589844zm0 0"/></g><path d="m443.695312 202.910156c0 19.070313-15.4375 34.535156-34.496093 34.589844h.089843 32.691407c-.027344 0-.054688 0-.085938 0 19.058594-.054688 34.492188-15.519531 34.492188-34.589844 0-19.105468-15.484375-34.589844-34.589844-34.589844h-32.691406c19.101562 0 34.589843 15.488282 34.589843 34.589844zm0 0" fill="#fccd7f"/><path d="m443.695312 341.265625c0 19.105469-15.488281 34.589844-34.589843 34.589844h32.691406c19.105469 0 34.589844-15.488281 34.589844-34.589844s-15.484375-34.589844-34.589844-34.589844h-32.691406c19.101562 0 34.589843 15.484375 34.589843 34.589844zm0 0" fill="#fccd7f"/><path d="m369.929688 124.472656h-237.546876c-24.214843 0-43.847656 19.632813-43.847656 43.847656h137.410156c15.199219 0 27.523438 12.324219 27.523438 27.523438v70.21875c0 12.003906 9.335938 22.230469 21.335938 22.660156 12.597656.445313 22.953124-9.632812 22.953124-22.128906v-40.03125c1.109376-11.429688 10.785157-20.667969 22.457032-20.445312 12.03125.226562 21.714844 10.050781 21.714844 22.136718v92.316406c0 12.007813 9.335937 22.234376 21.335937 22.660157 12.597656.449219 22.949219-9.632813 22.949219-22.128907v-125.25c0-15.199218 12.324218-27.523437 27.523437-27.523437h.054688c-.003907 0-.015625-.351563-.027344-.984375-.546875-23.832031-20.003906-42.871094-43.835937-42.871094zm0 0" fill="#ff9838"/><path d="m496.429688 438.054688h-482.863282l18.328125 37.785156c5.125 10.570312 15.84375 17.28125 27.589844 17.28125h391.023437c11.75 0 22.464844-6.714844 27.589844-17.28125zm0 0" fill="#a8d3d8"/><path d="m463.21875 438.054688-18.328125 37.785156c-5.125 10.570312-15.839844 17.28125-27.589844 17.28125h33.210938c11.746093 0 22.460937-6.714844 27.589843-17.28125l18.328126-37.785156zm0 0" fill="#8ebac5"/><path d="m497.222656 455.605469h-482.445312c-8.164063 0-14.777344-6.617188-14.777344-14.777344s6.613281-14.773437 14.777344-14.773437h482.449218c8.160157 0 14.773438 6.613281 14.773438 14.773437s-6.613281 14.777344-14.777344 14.777344zm0 0" fill="#deecf1"/><path d="m242.613281 35.152344c-36.707031-11.785156-68.699219-2.410156-80.160156 33.28125-11.457031 35.695312-2.363281 85.554687 34.34375 97.339844 36.707031 11.785156 87.128906-18.972657 98.585937-54.664063 11.457032-35.695313-16.0625-64.171875-52.769531-75.957031zm0 0" fill="#ff646f"/><path d="m242.613281 35.152344c-16.507812-5.300782-32.054687-6.304688-45.21875-2.574219 3.105469.699219 6.25 1.550781 9.4375 2.574219 36.707031 11.785156 64.226563 40.261718 52.769531 75.957031-7.976562 24.839844-34.828124 47.285156-62.789062 54.667969 36.703125 11.773437 87.113281-18.980469 98.570312-54.667969 11.457032-35.695313-16.0625-64.171875-52.769531-75.957031zm0 0" fill="#ff4755"/><path d="m191.332031 86.613281c-.78125 0-1.578125-.121093-2.363281-.371093-4.0625-1.304688-6.296875-5.65625-4.996094-9.71875 4.914063-15.300782 16.730469-24.433594 32.425782-25.058594 4.261718-.164063 7.859374 3.152344 8.027343 7.414062.171875 4.265625-3.148437 7.859375-7.414062 8.027344-9.222657.367188-15.386719 5.191406-18.324219 14.34375-1.050781 3.273438-4.085938 5.363281-7.355469 5.363281zm0 0" fill="#fff5f5"/></svg>